# xmcd
#
# Track frame offsets:
#	150
#	34337
#	88939
#	129893
#	162314
#	172581
#	201166
#	210083
#	238133
#	265678
#
# Disc length: 4227 seconds
#
# Revision: 1
# Processed by: cddbd v1.5PL3 Copyright (c) Steve Scherf et al.
# Submitted via: audiograbber 1.82.01
#
DISCID=7b10810a
DTITLE=Dream Theater - 2004-04-02 - Upper Darby, PA - Disc 1
DYEAR=1900
DGENRE=
TTITLE0=Dream Theater - As I Am
TTITLE1=Dream Theater - This Dying Soul
TTITLE2=Dream Theater - The Mirror-The Mirror (reprise)
TTITLE3=Dream Theater - Under a Glass Moon
TTITLE4=Dream Theater - Through My Words
TTITLE5=Dream Theater - Fatal Tragedy
TTITLE6=Dream Theater - Guitar Solo
TTITLE7=Dream Theater - Goodnight Kiss
TTITLE8=Dream Theater - Solitary Shell
TTITLE9=Dream Theater - Endless Sacrifice
EXTD=
EXTT0=
EXTT1=
EXTT2=
EXTT3=
EXTT4=
EXTT5=
EXTT6=
EXTT7=
EXTT8=
EXTT9=
PLAYORDER=
